<svg width="14.704" height="16" xmlns="http://www.w3.org/2000/svg">

 <g>
  <title>background</title>
  <rect fill="none" id="canvas_background" height="18" width="16.704" y="-1" x="-1"/>
 </g>
 <g>
  <title>Layer 1</title>
  <g stroke="null" id="Group_321">
   <g stroke="null" id="Group_170">
    <g stroke="null" id="margherita_glass_bonus">
     <g stroke="null" id="Group_153">
      <g stroke="null" id="Group_150">
       <g stroke="null" id="Group_149">
        <path stroke="null" fill="#ffffff" d="m6.718981,14.612038a0.383788,0.338408 0 0 1 -0.356155,-0.213535c-0.056417,-0.124196 -1.362448,-3.07173 -0.391464,-5.640924a0.383788,0.338408 0 1 1 0.729198,0.213535c-0.882713,2.337384 0.363831,5.148879 0.376112,5.177643a0.383788,0.338408 0 0 1 -0.356539,0.463619l-0.001151,-0.000338z" id="Path_118"/>
       </g>
      </g>
      <g stroke="null" id="Group_152">
       <g stroke="null" id="Group_151">
        <path stroke="null" fill="#ffffff" d="m5.656271,14.6117a0.39108,0.344838 0 0 1 -0.141618,-0.023689a0.383788,0.338408 0 0 1 -0.215305,-0.43993c0.012665,-0.028088 1.256523,-2.845673 0.376496,-5.177643a0.383788,0.338408 0 0 1 0.729198,-0.213535c0.969449,2.569194 -0.335431,5.516051 -0.39108,5.640924a0.383788,0.338408 0 0 1 -0.357691,0.213874z" id="Path_119"/>
       </g>
      </g>
     </g>
     <g stroke="null" id="Group_154">
      <path stroke="null" fill="#ffffff" d="m6.216986,15.736907c-1.93506,0 -4.017879,-0.425717 -4.017879,-1.3604c0,-0.903211 1.862141,-1.203041 2.663107,-1.289673a0.383788,0.338408 0 0 1 0.093644,0.67174c-1.451103,0.15736 -1.972672,0.513365 -1.989174,0.618272c0.031471,0.203045 1.175543,0.683246 3.250303,0.683246s3.218832,-0.479524 3.250303,-0.684261c-0.016503,-0.103553 -0.535385,-0.457866 -1.978812,-0.616241a0.383788,0.338408 0 0 1 0.094412,-0.671402c0.797512,0.087309 2.651977,0.387816 2.651977,1.288319c-0.001151,0.934683 -2.08397,1.3604 -4.017879,1.3604z" id="Path_120"/>
     </g>
     <g stroke="null" id="Group_155">
      <path stroke="null" fill="#ffffff" d="m6.187818,8.828983c-1.889006,0 -2.846557,-0.958033 -2.846557,-2.848042a0.383788,0.338408 0 1 1 0.767576,0c0,1.522836 0.621737,2.171226 2.078981,2.171226s2.078597,-0.649405 2.078597,-2.171226a0.383788,0.338408 0 1 1 0.767576,0c0,1.889332 -0.957935,2.848042 -2.846174,2.848042z" id="Path_121"/>
     </g>
     <g stroke="null" id="Group_156">
      <path stroke="null" fill="#ffffff" d="m3.725049,6.319349c-1.588883,0 -3.717757,-1.455155 -3.717757,-2.939751l0,-1.015224a0.383788,0.338408 0 1 1 0.767576,0l0,1.015224c0,1.070723 1.758518,2.262935 2.95018,2.262935a0.383788,0.338408 0 0 1 0,0.676816z" id="Path_122"/>
     </g>
     <g stroke="null" id="Group_157">
      <path stroke="null" fill="#ffffff" d="m8.650203,6.319349a0.383788,0.338408 0 0 1 0,-0.676816c1.189744,0 2.95018,-1.192212 2.95018,-2.262935l0,-1.015224a0.383788,0.338408 0 1 1 0.767576,0l0,1.015224c0,1.486288 -2.128873,2.939751 -3.717757,2.939751z" id="Path_123"/>
     </g>
     <g stroke="null" id="Group_158">
      <path stroke="null" fill="#ffffff" d="m6.187818,4.403959c-3.075295,0 -6.187818,-0.676816 -6.187818,-1.97055s3.112523,-1.970889 6.187818,-1.970889a16.67982,14.707552 0 0 1 2.963229,0.223011a0.383788,0.338408 0 1 1 -0.138548,0.665649a15.923758,14.040889 0 0 0 -2.824681,-0.211843c-3.309022,0 -5.420241,0.766156 -5.420241,1.294072s2.110835,1.293734 5.420241,1.293734s5.420241,-0.766156 5.420241,-1.293734a0.383788,0.338408 0 0 1 0.767576,0c0,1.293734 -3.11329,1.97055 -6.187818,1.97055z" id="Path_124"/>
     </g>
     <g stroke="null" id="Group_159">
      <path stroke="#333" stroke-width="2" stroke-linejoin="round" fill="#ffffff" d="m11.077664,1.553548" id="Path_125"/>
     </g>
     <g stroke="null" id="Group_160">
      <path stroke="#333" stroke-width="2" stroke-linejoin="round" fill="#ffffff" d="m9.402428,1.074363" id="Path_126"/>
     </g>
     <g stroke="null" id="Group_163">
      <g stroke="null" id="Group_161">
       <path stroke="null" fill="#ffffff" d="m12.967821,4.022912a0.383788,0.338408 0 0 1 -0.12972,-0.657188a1.820691,1.605408 0 0 0 1.033926,-0.834176a0.383788,0.338408 0 1 1 0.696959,0.282571a2.592106,2.285608 0 0 1 -1.471828,1.188827a0.381102,0.336039 0 0 1 -0.129337,0.019966z" id="Path_127"/>
      </g>
      <g stroke="null" id="Group_162">
       <path stroke="null" fill="#ffffff" d="m14.220122,3.011072a0.375729,0.331301 0 0 1 -0.160423,-0.031134a0.383788,0.338408 0 0 1 -0.187672,-0.449067a1.808026,1.59424 0 1 0 -3.304033,-0.038579a0.383788,0.338408 0 0 1 -0.704635,0.268019a2.574835,2.27038 0 1 1 4.705628,0.054145a0.383788,0.338408 0 0 1 -0.348864,0.196615z" id="Path_128"/>
      </g>
     </g>
     <g stroke="null" id="Group_164">
      <rect stroke="null" x="32.013433" y="6.441" fill="#ffffff" transform="matrix(0.10156854799950342,-0.3263422001758935,0.3701043629136363,0.08955880217646454,6.5650867045010495,12.817616013439038) " height="2" width="5.037" id="Rectangle_1"/>
     </g>
     <g stroke="null" id="Group_165">
      <rect stroke="null" x="-221.726711" y="-395.79893" fill="#ffffff" transform="matrix(0.33351197628974444,-0.1675119864746504,0.18997517636757594,0.2940765984777196,160.0803687742017,79.90501195714451) " height="5.038" width="2" id="Rectangle_2"/>
     </g>
     <g stroke="null" id="Group_166">
      <rect stroke="null" x="27.854425" y="6.335965" fill="#ffffff" transform="matrix(0.10158145992044505,-0.3263390755026178,0.37010081922479854,0.08957018735618905,4.439130108753665,11.316491811022297) " height="5.038" width="2" id="Rectangle_3"/>
     </g>
     <g stroke="null" id="Group_167">
      <rect stroke="null" x="31.567185" y="6.503384" fill="#ffffff" transform="matrix(0.3335330564876695,-0.16741574650791233,0.18986603071752756,0.294095186094782,-0.29520805941197603,5.784510184200331) " height="5.038" width="2" id="Rectangle_4"/>
     </g>
     <g stroke="null" id="Group_168">
      <rect stroke="null" x="122.843126" y="-436.882169" fill="#ffffff" transform="matrix(0.10170388229779319,-0.3262253635587131,0.36997185862291554,0.08967813417329769,161.268577150028,81.54561420043562) " height="5.037" width="2" id="Rectangle_5"/>
     </g>
     <g stroke="null" id="Group_169">
      <rect stroke="null" x="31.941458" y="5.140552" fill="#ffffff" transform="matrix(0.3334800204067118,-0.16749787068530028,0.18995916766498822,0.294048421146614,0.34815423358101855,5.976857222441814) " height="2.001" width="5.038" id="Rectangle_6"/>
     </g>
    </g>
   </g>
  </g>
 </g>
</svg>